<svg width="20" height="18" viewBox="0 0 20 18" fill="none" xmlns="http://www.w3.org/2000/svg">
<g clip-path="url(#clip0_294_2064)">
<path d="M8.79793 3H3.21283C2.78961 3 2.38372 3.15804 2.08446 3.43934C1.7852 3.72064 1.61708 4.10218 1.61708 4.5V15C1.61708 15.3978 1.7852 15.7794 2.08446 16.0607C2.38372 16.342 2.78961 16.5 3.21283 16.5H14.383C14.8063 16.5 15.2121 16.342 15.5114 16.0607C15.8107 15.7794 15.9788 15.3978 15.9788 15V9.75" stroke="#1976d2" stroke-width="1.5" stroke-linecap="round" stroke-linejoin="round"/>
<path d="M14.782 1.87493C15.0994 1.57656 15.5299 1.40894 15.9788 1.40894C16.4277 1.40894 16.8582 1.57656 17.1756 1.87493C17.493 2.17329 17.6713 2.57797 17.6713 2.99993C17.6713 3.42188 17.493 3.82656 17.1756 4.12493L9.5958 11.2499L6.40431 11.9999L7.20218 8.99993L14.782 1.87493Z" stroke="#1976d2" stroke-width="1.5" stroke-linecap="round" stroke-linejoin="round"/>
</g>
<defs>
<clipPath id="clip0_294_2064">
<rect width="19.1489" height="18" fill="white" transform="translate(0.0213318)"/>
</clipPath>
</defs>
</svg>
