<svg data-v-6805eed4="" version="1.0" xmlns="http://www.w3.org/2000/svg"
    xmlns:xlink="http://www.w3.org/1999/xlink" width="100%" height="100%"
    viewBox="0 0 340.000000 250.000000" preserveAspectRatio="xMidYMid meet"
    color-interpolation-filters="sRGB" style="margin: auto;">
    <rect data-v-6805eed4="" x="0" y="0" width="100%" height="100%" fill="#feffff" fill-opacity="1"
        class="background"></rect>
    <rect data-v-6805eed4="" x="0" y="0" width="100%" height="100%" fill="url(#watermark)"
        fill-opacity="1" class="watermarklayer"></rect>
    <g data-v-6805eed4="" fill="#1D7BD8" class="iconlinesvg-g iconlinesvg"
        transform="translate(80.05079650878906,100.30105590820312)">
        <g class="tp-name" transform="translate(0,0)">
            <g transform="translate(0, 0)">
                <g>
                    <g class="imagesvg">
                        <g>
                            <rect fill="#1D7BD8" fill-opacity="0" stroke-width="2" x="0" y="0"
                                width="27.87487751529673" height="35.38588559079992"
                                class="image-rect"></rect>
                            <svg x="0" y="0" width="27.87487751529673" height="35.38588559079992"
                                filtersec="colorsb9601123054" class="image-svg-svg primary"
                                style="overflow: visible;">
                                <svg xmlns="http://www.w3.org/2000/svg"
                                    viewBox="0 -0.0033321380615234375 164.37738037109375 208.6682891845703">
                                    <title>资源 128</title>
                                    <circle cx="138" cy="42.33" r="23" fill="#ff5a03"></circle>
                                    <circle cx="23" cy="163.33" r="23" fill="#1D7BD8"></circle>
                                    <path
                                        d="M86 .33s-54 2-46 45c10 25 55 38 68 44 0 0 70 26 54 76s-80 43-80 43 80-11 41-64c-26-28-83-24-106-63 0 0-34-46 19-72 29-12 50-9 50-9z"
                                        fill="#1D7BD8"></path>
                                </svg>
                            </svg> <!---->
                        </g>
                    </g>
                </g>
            </g>
            <g transform="translate(31, 2.785092966048424)">
                <g data-gra="path-name" fill="#1D7BD8" transform="scale(1)">
                    <path
                        d="M22.36-23.88L22.36-28.67L3.24-28.67L3.24 0L22.36 0L22.36-4.79L8.03-4.79L8.03-11.96L19.95-11.96L19.95-16.71L8.03-16.71L8.03-23.88Z"
                        transform="translate(-3.2354948805460757, 29.078498293515363)"></path>
                </g>
            </g>
            <g transform="translate(54, 2.785092966048424)">
                <g data-gra="path-name" fill="#1D7BD8" transform="scale(1)">
                    <path
                        d="M17.37 0L22.65 0L16.79-12.70C19.37-13.64 22.32-15.69 22.32-20.31C22.32-28.67 12.74-28.67 12.74-28.67L3.19-28.67L3.19 0L7.99 0L7.99-11.96L11.88-11.96ZM7.99-23.88L12.74-23.88C12.74-23.88 17.53-23.88 17.53-20.31C17.53-16.71 12.74-16.71 12.74-16.71L7.99-16.71Z"
                        transform="translate(-3.194539249146758, 29.078498293515363)"></path>
                </g>
            </g>
            <g transform="translate(77, 2.785092966048424)">
                <g data-gra="path-name" fill="#1D7BD8" transform="scale(1)">
                    <path d="M17.73-28.67L11.43-11.75L5.16-28.67L0-28.67L11.43 0.74L22.89-28.67Z"
                        transform="translate(0, 29.078498293515363)"></path>
                </g>
            </g>
            <g transform="translate(103, 2.785092966048424)">
                <g data-gra="path-name" fill="#1D7BD8" transform="scale(1)">
                    <path d="M3.36 0L8.15 0L8.15-28.67L3.36-28.67Z"
                        transform="translate(-3.358361774744028, 29.078498293515363)"></path>
                </g>
            </g>
            <g transform="translate(111, 2.785092966048424)">
                <g data-gra="path-name" fill="#1D7BD8" transform="scale(1)">
                    <path
                        d="M16.63-4.38C11.34-4.38 7.13-8.19 7.13-14.33C7.13-20.11 10.73-24.29 16.63-24.29C19.25-24.29 21.67-23.22 23.39-21.50L26.74-24.86C24.16-27.48 20.60-29.08 16.63-29.08C8.23-29.08 2.25-22.98 2.25-14.33C2.25-5.32 8.72 0.41 16.63 0.41C20.60 0.41 24.16-1.19 26.74-3.77L23.39-7.17C21.67-5.45 19.25-4.38 16.63-4.38Z"
                        transform="translate(-2.2525597269624575, 29.078498293515363)"></path>
                </g>
            </g>
            <g transform="translate(139, 2.785092966048424)">
                <g data-gra="path-name" fill="#1D7BD8" transform="scale(1)">
                    <path
                        d="M22.36-23.88L22.36-28.67L3.24-28.67L3.24 0L22.36 0L22.36-4.79L8.03-4.79L8.03-11.96L19.95-11.96L19.95-16.71L8.03-16.71L8.03-23.88Z"
                        transform="translate(-3.2354948805460757, 29.078498293515363)"></path>
                </g>
            </g>
            <g transform="translate(162, 2.785092966048424)">
                <g data-gra="path-name" fill="#1D7BD8" transform="scale(1)">
                    <path
                        d="M11.18 0.41C15.81 0.41 20.11-2.54 20.11-8.03C20.11-11.43 18.47-14.33 15.44-15.73C13.39-16.67 11.39-16.67 11.18-16.67C9.05-16.67 7.00-17.94 7.00-20.31C7.00-22.98 8.93-24.29 11.18-24.29C13.35-24.29 15.19-23.22 15.28-20.85L20.03-20.85C19.95-25.72 16.14-29.08 11.18-29.08C6.55-29.08 2.21-25.76 2.21-20.31C2.21-16.91 3.89-14.38 6.88-12.98C8.97-12.04 10.94-12.04 11.18-12.04C13.11-11.96 15.36-10.44 15.36-8.03C15.36-5.77 13.39-4.38 11.18-4.38C9.05-4.38 7.09-5.57 7.00-7.95L2.21-7.95C2.29-2.58 6.23 0.29 11.18 0.41Z"
                        transform="translate(-2.21160409556314, 29.078498293515363)"></path>
                </g>
            </g>
        </g>
        <g data-gra="path-slogan" fill-rule="" class="tp-slogan" fill="#1D7BD8"
            transform="translate(5,41.385887145996094)">
            <rect x="0" height="1" y="3.505000114440918" width="71.41920375823975"></rect>
            <rect height="1" y="3.505000114440918" width="71.41920375823975" x="98.47920322418213"></rect>
            <g transform="translate(74.41920375823975,0)">
                <g transform="scale(1)">
                    <path
                        d="M1.08-7.87L1.08 0L2.08 0L2.08-3.71L5.74-3.71L5.74 0L6.74 0L6.74-7.87L5.74-7.87L5.74-4.57L2.08-4.57L2.08-7.87ZM8.87-7.87L8.87-3.25C8.87-2.62 8.94-2.09 9.08-1.66C9.23-1.22 9.43-0.87 9.68-0.61C9.93-0.34 10.23-0.15 10.58-0.03C10.93 0.09 11.30 0.14 11.70 0.14C12.10 0.14 12.47 0.09 12.82-0.03C13.16-0.15 13.46-0.34 13.71-0.61C13.96-0.87 14.16-1.22 14.30-1.66C14.45-2.09 14.52-2.62 14.52-3.25L14.52-7.87L13.56-7.87L13.56-3.23C13.56-2.76 13.51-2.36 13.42-2.04C13.32-1.72 13.19-1.46 13.02-1.27C12.85-1.08 12.66-0.94 12.43-0.86C12.21-0.77 11.96-0.73 11.70-0.73C11.44-0.73 11.20-0.77 10.98-0.86C10.76-0.94 10.56-1.08 10.40-1.27C10.23-1.46 10.10-1.72 10.01-2.04C9.91-2.36 9.86-2.76 9.86-3.23L9.86-7.87ZM16.64-7.87L16.64 0L19.15 0C19.59 0 20.00-0.05 20.36-0.14C20.73-0.24 21.05-0.38 21.31-0.58C21.58-0.77 21.78-1.01 21.92-1.30C22.07-1.58 22.14-1.92 22.14-2.30C22.14-2.85 21.98-3.28 21.66-3.59C21.34-3.90 20.89-4.10 20.32-4.19L20.32-4.24C20.78-4.36 21.12-4.57 21.35-4.89C21.57-5.21 21.68-5.56 21.68-5.95C21.68-6.30 21.62-6.59 21.49-6.83C21.35-7.08 21.17-7.28 20.93-7.43C20.70-7.58 20.41-7.69 20.08-7.76C19.75-7.84 19.38-7.87 18.98-7.87ZM18.80-4.51L17.64-4.51L17.64-7.08L18.85-7.08C19.47-7.08 19.93-6.99 20.24-6.80C20.55-6.61 20.70-6.30 20.70-5.87C20.70-5.43 20.55-5.09 20.26-4.86C19.97-4.63 19.48-4.51 18.80-4.51ZM19.01-0.79L17.64-0.79L17.64-3.77L19.01-3.77C19.70-3.77 20.24-3.65 20.60-3.43C20.97-3.20 21.16-2.84 21.16-2.35C21.16-1.82 20.97-1.42 20.59-1.17C20.22-0.92 19.69-0.79 19.01-0.79Z"
                        transform="translate(-1.08, 7.872)"></path>
                </g>
            </g>
        </g>
    </g>
    <defs v-gra="od"></defs>
</svg>
    